<?xml version="1.0" encoding="UTF-8"?> <svg xmlns="http://www.w3.org/2000/svg" width="300" height="95" viewBox="0 0 300 95"><defs><style> .cls-1 { fill: #cda274; } .cls-1, .cls-2 { fill-rule: evenodd; } .cls-2 { fill: #fff; } </style></defs><path class="cls-1" d="M314.375,78.829L308.9,82.094v6.532l5.474-3.265,13.125-7.83,13.125,7.83,5.475,3.265V82.094l-5.475-3.265L327.5,71ZM308.9,101.69v28.721l18.6,11.1,18.6-11.095V101.69l5.475,3.265v22.191l5.475-3.266V101.69L327.5,84.063,297.95,101.69v22.19l5.475,3.266V104.955Zm5.474,3.265v-6.53l13.125-7.83,13.125,7.83v28.721L327.5,134.974l-13.125-7.828V104.955Z" transform="translate(-287 -71)"></path><path id="Shape_650_copy" data-name="Shape 650 copy" class="cls-1" d="M335.712,156.2l26.813-15.993V91.893L368,95.158v48.317l-20.25,12.079-12.038,7.18L330.238,166v-19.6l5.474-3.266,15.863-9.461,5.475-3.267v6.532L335.712,149.67V156.2Zm-16.425,0-26.811-15.993V91.893L287,95.158v48.317l20.25,12.079,12.037,7.18L324.763,166v-19.6l-5.476-3.266-15.862-9.461-5.475-3.267v6.532l21.337,12.727V156.2Z" transform="translate(-287 -71)"></path><path id="Inoterior" class="cls-2" d="M397.081,100.862h-6.56V136h6.56V100.862ZM411.365,136V117.969a10.434,10.434,0,0,1,2.575-1.919,6.243,6.243,0,0,1,2.915-.7,3.916,3.916,0,0,1,3.17,1.251,5.327,5.327,0,0,1,1.057,3.536V136h6V120.132a12.715,12.715,0,0,0-.547-3.827,8.564,8.564,0,0,0-1.6-2.989,7.17,7.17,0,0,0-2.636-1.944,8.932,8.932,0,0,0-3.62-.693,10.574,10.574,0,0,0-2.332.243,9.108,9.108,0,0,0-2,.7,11.065,11.065,0,0,0-1.774,1.094,13.738,13.738,0,0,0-1.591,1.409l-0.413-1.968a1.474,1.474,0,0,0-1.53-1.094h-3.669V136h6Zm27.913-24.422a11.036,11.036,0,0,0-3.9,2.552,11.343,11.343,0,0,0-2.5,4.034,16.5,16.5,0,0,0,0,10.667,11.6,11.6,0,0,0,2.5,4.059,10.863,10.863,0,0,0,3.9,2.575,14.752,14.752,0,0,0,10.142,0,10.772,10.772,0,0,0,3.875-2.575,11.545,11.545,0,0,0,2.478-4.059,16.71,16.71,0,0,0,0-10.667,11.3,11.3,0,0,0-2.478-4.034,10.943,10.943,0,0,0-3.875-2.552A14.752,14.752,0,0,0,439.278,111.578Zm0.413,18.068a10.421,10.421,0,0,1-1.507-6.112,10.539,10.539,0,0,1,1.507-6.136,5.326,5.326,0,0,1,4.664-2.126,5.254,5.254,0,0,1,4.6,2.114,10.6,10.6,0,0,1,1.494,6.148,10.482,10.482,0,0,1-1.494,6.124,5.276,5.276,0,0,1-4.6,2.089A5.349,5.349,0,0,1,439.691,129.646Zm34.083,6.184a9.091,9.091,0,0,0,3.012-1.653l-1.8-2.916a2.053,2.053,0,0,0-.364-0.4,0.692,0.692,0,0,0-.437-0.133,0.844,0.844,0,0,0-.438.133q-0.218.135-.5,0.28a5.071,5.071,0,0,1-.656.279,2.805,2.805,0,0,1-.936.134,1.976,1.976,0,0,1-1.554-.656,2.648,2.648,0,0,1-.584-1.823v-13.51h6.56v-4.277h-6.56v-7.849h-3.109a1.428,1.428,0,0,0-.887.267,1.2,1.2,0,0,0-.449.754l-1.263,6.8-4.009.656V114.3A1.151,1.151,0,0,0,461,115.564h2.526v13.924a7.043,7.043,0,0,0,1.749,5.066,6.555,6.555,0,0,0,4.98,1.835A11.23,11.23,0,0,0,473.774,135.83Zm13.106-24.179a11.155,11.155,0,0,0-3.766,2.637,11.542,11.542,0,0,0-2.368,3.912,13.8,13.8,0,0,0-.826,4.8,16.2,16.2,0,0,0,.947,5.772,11.974,11.974,0,0,0,2.6,4.179,10.826,10.826,0,0,0,3.887,2.552,13.316,13.316,0,0,0,4.835.862,19.58,19.58,0,0,0,2.708-.194,14.156,14.156,0,0,0,2.746-.668,12.534,12.534,0,0,0,2.587-1.264,9.977,9.977,0,0,0,2.235-1.956l-1.749-2.187a1.4,1.4,0,0,0-.462-0.413,1.3,1.3,0,0,0-.632-0.146,2.327,2.327,0,0,0-1.153.34q-0.6.34-1.385,0.754a11.889,11.889,0,0,1-1.846.753,8.244,8.244,0,0,1-2.515.34,6.432,6.432,0,0,1-4.761-1.8q-1.8-1.8-2.065-5.638h15.4a1.81,1.81,0,0,0,.68-0.109,0.884,0.884,0,0,0,.425-0.364,1.826,1.826,0,0,0,.219-0.7,8.792,8.792,0,0,0,.06-1.13,13.409,13.409,0,0,0-.8-4.8,10.067,10.067,0,0,0-2.235-3.548,9.5,9.5,0,0,0-3.413-2.2,12.112,12.112,0,0,0-4.337-.754A12.416,12.416,0,0,0,486.88,111.651Zm7.47,3.779A4.6,4.6,0,0,1,496,116.657a5.089,5.089,0,0,1,.972,1.811,7.494,7.494,0,0,1,.315,2.2H486.017a7.311,7.311,0,0,1,1.895-4.2,5.55,5.55,0,0,1,4.106-1.483A5.621,5.621,0,0,1,494.35,115.43ZM514.294,136V120.472a7.95,7.95,0,0,1,2.259-3.025,5.092,5.092,0,0,1,3.207-1.033,6.683,6.683,0,0,1,1.676.17,4.059,4.059,0,0,0,1,.17,1.066,1.066,0,0,0,.656-0.182,0.929,0.929,0,0,0,.316-0.62l0.777-4.5a5.211,5.211,0,0,0-3.061-.851,6.591,6.591,0,0,0-4.032,1.337,11.828,11.828,0,0,0-3.134,3.645l-0.365-3.013a1.964,1.964,0,0,0-.485-1.167,1.9,1.9,0,0,0-1.288-.34h-3.523V136h6Zm14.964-24.932V136h6V111.068h-6Zm6.584-8.772a3.926,3.926,0,0,0-.838-1.215,4.037,4.037,0,0,0-1.227-.814,3.757,3.757,0,0,0-1.506-.3,3.607,3.607,0,0,0-1.47.3,3.8,3.8,0,0,0-2.017,2.029,3.773,3.773,0,0,0-.3,1.506,3.539,3.539,0,0,0,.3,1.458,3.943,3.943,0,0,0,.814,1.191,3.884,3.884,0,0,0,1.2.814,3.607,3.607,0,0,0,1.47.3,3.757,3.757,0,0,0,1.506-.3,3.96,3.96,0,0,0,2.065-2,3.424,3.424,0,0,0,.315-1.458A3.65,3.65,0,0,0,535.842,102.3Zm12.486,9.282a11.041,11.041,0,0,0-3.9,2.552,11.343,11.343,0,0,0-2.5,4.034,16.478,16.478,0,0,0,0,10.667,11.6,11.6,0,0,0,2.5,4.059,10.867,10.867,0,0,0,3.9,2.575,14.754,14.754,0,0,0,10.143,0,10.759,10.759,0,0,0,3.874-2.575,11.545,11.545,0,0,0,2.478-4.059,16.692,16.692,0,0,0,0-10.667,11.3,11.3,0,0,0-2.478-4.034,10.93,10.93,0,0,0-3.874-2.552A14.754,14.754,0,0,0,548.328,111.578Zm0.413,18.068a10.429,10.429,0,0,1-1.506-6.112,10.547,10.547,0,0,1,1.506-6.136,5.327,5.327,0,0,1,4.664-2.126,5.255,5.255,0,0,1,4.6,2.114,10.6,10.6,0,0,1,1.494,6.148,10.482,10.482,0,0,1-1.494,6.124,5.278,5.278,0,0,1-4.6,2.089A5.35,5.35,0,0,1,548.741,129.646ZM577.115,136V120.472a7.962,7.962,0,0,1,2.26-3.025,5.088,5.088,0,0,1,3.207-1.033,6.689,6.689,0,0,1,1.676.17,4.059,4.059,0,0,0,1,.17,1.066,1.066,0,0,0,.656-0.182,0.928,0.928,0,0,0,.315-0.62l0.778-4.5a5.214,5.214,0,0,0-3.061-.851,6.6,6.6,0,0,0-4.033,1.337,11.854,11.854,0,0,0-3.134,3.645l-0.364-3.013a1.958,1.958,0,0,0-.486-1.167,1.892,1.892,0,0,0-1.287-.34h-3.523V136h6Z" transform="translate(-287 -71)"></path></svg> 